<?xml version="1.0" encoding="utf-8"?>
<!-- Generator: Adobe Illustrator 23.1.0, SVG Export Plug-In . SVG Version: 6.00 Build 0)  -->
<svg version="1.1" id="Capa_1" xmlns="http://www.w3.org/2000/svg" xmlns:xlink="http://www.w3.org/1999/xlink" x="0px" y="0px"
	 viewBox="0 0 40 36" style="enable-background:new 0 0 40 36;" xml:space="preserve">
<style type="text/css">
	.st0{display:none;fill-rule:evenodd;clip-rule:evenodd;fill:#E52421;}
	.st1{fill-rule:evenodd;clip-rule:evenodd;fill:none;}
	.st2{fill:none;}
</style>
<rect x="-15.4" y="-5.49" class="st0" width="82.89" height="63.32"/>
<path class="st1" d="M18.5,0.01c9.66,0,17.49,7.83,17.49,17.49c0,9.66-7.83,17.49-17.49,17.49C8.84,34.99,1,27.16,1,17.5
	C1,7.84,8.84,0.01,18.5,0.01z"/>
<path class="st2" d="M22.51,12.09c-0.68-1.16-1.63-1.67-1.67-3c-0.07-2.12,0.03-1.69,0.03-1.4c0-0.71-1.29-1.28-1.98-1.28
	c-0.69,0-1.52,0.57-1.52,1.28c0,0.01-0.04,0.02-0.04,0.03l-0.01,4.3h-6.27c-0.01,0-0.02,0.08-0.02,0.08c-0.68,0-1.02,0.72-1.02,1.42
	c0,0.7,0.34,1.25,1.02,1.25c0.01,0,0.01,0,0.02,0h2.11v0.94l-2.16-0.06v0.06C10.32,15.73,10,16.37,10,17.07
	c0,0.69,0.31,1.3,0.98,1.33v0H11c0.01,0,0.01,0,0.02,0c0.01,0,0.01,0,0.02,0h2.11v0.69h-2.06v0c-0.02,0-0.04,0-0.06,0
	c-0.68,0-1.02,0.72-1.02,1.42c0,0.7,0.34,1.37,1.02,1.37c0.02,0,0.04,0,0.06,0v0h2.06v0.66h-2.07c-0.02,0-0.04,0.17-0.06,0.17
	c-0.68,0-1.02,0.61-1.02,1.32c0,0.69,0.31,1.32,0.98,1.34l0,0h12.75c0,0,0.74-2.14,1.66-2.14c0.92,0,1.77,0,1.77,0v-8.46
	C27.15,14.77,23.86,14.41,22.51,12.09z"/>
</svg>
